<svg width="16" height="16" viewBox="0 0 16 16" fill="none" xmlns="http://www.w3.org/2000/svg">
<path d="M10.5 8C9.8575 8 9.23625 7.71313 8.75 7.1925C8.27719 6.68469 7.98844 6.0075 7.9375 5.28625C7.88313 4.51688 8.11782 3.80938 8.59813 3.29375C9.07844 2.77813 9.75 2.5 10.5 2.5C11.2447 2.5 11.9181 2.78312 12.3969 3.2975C12.8803 3.81688 13.1156 4.52313 13.0613 5.28594C13.0091 6.00813 12.7206 6.685 12.2488 7.19219C11.7638 7.71313 11.1428 8 10.5 8ZM14.6197 13.5H6.38063C6.24816 13.5007 6.1173 13.471 5.99811 13.4132C5.87892 13.3554 5.77459 13.271 5.69313 13.1666C5.60672 13.0533 5.54705 12.922 5.51859 12.7824C5.49012 12.6429 5.4936 12.4987 5.52875 12.3606C5.79188 11.3041 6.44375 10.4278 7.41375 9.82688C8.27469 9.29375 9.37063 9 10.5 9C11.6516 9 12.7188 9.28125 13.5847 9.81406C14.5569 10.4119 15.2097 11.2931 15.4716 12.3625C15.5063 12.5006 15.5094 12.6448 15.4806 12.7843C15.4518 12.9238 15.3919 13.055 15.3053 13.1681C15.2239 13.2721 15.1198 13.3561 15.001 13.4136C14.8822 13.4711 14.7517 13.5007 14.6197 13.5ZM4.59375 8.125C3.49407 8.125 2.52719 7.1025 2.4375 5.84594C2.39313 5.20219 2.59375 4.60688 3 4.17031C3.40188 3.73813 3.96875 3.5 4.59375 3.5C5.21875 3.5 5.78125 3.73938 6.18532 4.17406C6.59469 4.61406 6.79469 5.20813 6.74782 5.84656C6.65813 7.10281 5.69157 8.125 4.59375 8.125ZM6.64563 9.10781C6.09594 8.83906 5.3825 8.70469 4.59407 8.70469C3.67344 8.70469 2.77938 8.94469 2.07625 9.38031C1.27907 9.875 0.742815 10.5953 0.526253 11.465C0.49456 11.5901 0.491563 11.7207 0.517484 11.8471C0.543406 11.9736 0.597575 12.0925 0.67594 12.195C0.750299 12.2905 0.84556 12.3676 0.954398 12.4205C1.06324 12.4733 1.18275 12.5006 1.30375 12.5H4.7725C4.83105 12.5 4.88774 12.4794 4.93268 12.4419C4.97762 12.4044 5.00798 12.3523 5.01844 12.2947C5.02188 12.275 5.02625 12.2553 5.03125 12.2359C5.29625 11.1716 5.91719 10.2722 6.83469 9.61656C6.86844 9.59224 6.89558 9.55988 6.91366 9.52241C6.93174 9.48495 6.94018 9.44356 6.93823 9.40201C6.93627 9.36046 6.92398 9.32005 6.90246 9.28445C6.88094 9.24884 6.85088 9.21917 6.815 9.19813C6.76594 9.16938 6.70969 9.13906 6.64563 9.10781Z" fill="black"/>
</svg>
