<svg width="32" height="32" viewBox="0 0 32 32" fill="none" xmlns="http://www.w3.org/2000/svg">
<g clip-path="url(#clip0_1_10880)">
<path d="M32 0H0V32H32V0Z" fill="#FFD800"/>
<path d="M3.64654 17.9066C5.70222 20.117 7.65459 22.4896 10.6932 23.2921C12.4168 23.7474 13.2345 23.3406 14.8612 23.1077C16.6017 22.8585 18.3013 22.7703 20.0482 22.6332C22.8814 22.4108 25.1653 21.5505 27.427 19.8561C27.6418 19.6956 28.1467 19.329 28.3031 19.1562C28.6364 18.7862 28.3031 18.2959 27.8262 18.4453C26.8194 19.2374 25.7746 19.9757 24.6318 20.5629C23.2689 21.2627 21.8138 21.6176 20.2817 21.7577C18.3655 21.9328 16.4803 22.0051 14.5705 22.2917C13.5135 22.4505 12.7757 22.7674 11.651 22.6267C8.54177 22.2374 6.31216 19.4568 4.28857 17.3235C4.01366 17.0334 2.96189 15.7027 2.70099 15.6425C2.60002 15.6192 2.47453 15.6128 2.3753 15.6425C2.07646 15.7318 2.07938 16.0832 2.21713 16.3021C2.46694 16.6996 3.28408 17.5179 3.64654 17.9072V17.9066Z" fill="black"/>
<path d="M27.0692 8.11658C30.8637 7.63681 31.2039 12.7708 27.8688 13.0603C24.3476 13.3661 24.0003 8.50472 27.0692 8.11658Z" fill="black"/>
<path d="M1.92591 10.5041C2.52884 12.8428 5.85167 13.1265 6.82873 10.9126C7.24839 9.96124 7.15909 9.03554 6.42191 8.25517C4.64406 6.37284 1.26052 7.9219 1.92591 10.5041Z" fill="black"/>
<path d="M27.0272 9.42895C28.2897 9.17272 28.651 11.17 27.2479 11.17C26.0578 11.17 26.0181 9.6344 27.0272 9.42895Z" fill="#FBFBFB"/>
<path d="M3.89113 8.22298C5.13143 8.01986 5.34797 9.7627 4.27227 9.94539C2.9882 10.1637 2.72029 8.41442 3.89113 8.22298Z" fill="#FBFBFB"/>
</g>
<defs>
<clipPath id="clip0_1_10880">
<rect width="32" height="32" fill="white"/>
</clipPath>
</defs>
</svg>
