<svg width="16" height="16" viewBox="0 0 16 16" fill="none" xmlns="http://www.w3.org/2000/svg">
<path d="M15.7368 3.94375C15.7002 3.86825 15.6459 3.80262 15.5787 3.75233C15.5115 3.70203 15.4333 3.66853 15.3505 3.65462C15.2677 3.64071 15.1828 3.64678 15.1029 3.67234C15.0229 3.6979 14.9503 3.74221 14.8909 3.80156L13.2925 5.4C13.2273 5.46431 13.1394 5.50037 13.0478 5.50037C12.9562 5.50037 12.8683 5.46431 12.8031 5.4L12.1006 4.6975C12.0363 4.6322 12.0003 4.54427 12.0003 4.45265C12.0003 4.36104 12.0363 4.27311 12.1006 4.20781L13.6906 2.6175C13.7514 2.55667 13.7964 2.48185 13.8217 2.39961C13.8469 2.31736 13.8516 2.23018 13.8354 2.14569C13.8191 2.06121 13.7824 1.98199 13.7285 1.91497C13.6745 1.84795 13.605 1.79517 13.5259 1.76125C12.285 1.23 10.7422 1.52844 9.7759 2.48906C8.93809 3.32062 8.68747 4.61406 9.0884 6.04219C9.10569 6.10348 9.10561 6.16837 9.08817 6.22961C9.07074 6.29086 9.03663 6.34606 8.98965 6.38906L3.58653 11.4094C3.40753 11.5704 3.26319 11.7662 3.1623 11.9848C3.06141 12.2034 3.00609 12.4403 2.99971 12.681C2.99332 12.9217 3.03601 13.1612 3.12517 13.3848C3.21432 13.6085 3.34808 13.8117 3.51829 13.982C3.6885 14.1522 3.8916 14.2861 4.11522 14.3754C4.33884 14.4646 4.57829 14.5074 4.81898 14.5012C5.05968 14.4949 5.29658 14.4397 5.51525 14.3389C5.73392 14.2382 5.92978 14.0939 6.0909 13.915L11.1562 8.5025C11.1986 8.45658 11.2527 8.42309 11.3128 8.40563C11.3728 8.38818 11.4364 8.38742 11.4968 8.40344C12.9031 8.77844 14.1843 8.52844 15.0103 7.71594C15.4853 7.24719 15.8168 6.58562 15.9443 5.85C16.064 5.15625 15.9884 4.46125 15.7368 3.94375Z" fill="#A97DF5"/>
<path d="M13.6666 11.8253C13.231 11.4631 12.3004 10.6253 11.3519 9.75594L9.28722 11.9625C10.1697 12.9 10.9685 13.7703 11.3185 14.1775L11.3207 14.18C11.4047 14.2762 11.5076 14.3543 11.6229 14.4093C11.7382 14.4643 11.8636 14.4952 11.9913 14.5H12.0257C12.2712 14.4993 12.5067 14.4026 12.6819 14.2306L12.6841 14.2284L13.7288 13.1856C13.8195 13.0951 13.8904 12.9866 13.9368 12.8671C13.9832 12.7476 14.0041 12.6197 13.9982 12.4917C13.9923 12.3636 13.9598 12.2382 13.9026 12.1234C13.8454 12.0087 13.765 11.9072 13.6663 11.8253H13.6666ZM3.70441 6.70469C3.70492 6.58608 3.67247 6.46967 3.61066 6.36844C3.60201 6.35475 3.59738 6.3389 3.59731 6.3227C3.59725 6.3065 3.60174 6.29061 3.61029 6.27685C3.61883 6.26309 3.63108 6.25201 3.64562 6.24489C3.66017 6.23776 3.67643 6.23488 3.69254 6.23656H3.69441C3.72066 6.23938 3.86097 6.25969 4.06004 6.38063C4.20785 6.47031 4.62972 6.75813 5.3641 7.49125C5.35628 7.74095 5.43611 7.9855 5.58972 8.1825L7.65941 6.25906C7.4761 6.08549 7.23658 5.98347 6.98441 5.97156C6.98206 5.969 6.97986 5.96628 6.97785 5.96344L6.95754 5.94188L6.19066 4.88438C6.10541 4.76861 6.0495 4.6339 6.02773 4.49179C6.00596 4.34968 6.01897 4.20441 6.06566 4.06844C6.136 3.86592 6.26395 3.68834 6.43379 3.5575C6.6116 3.41969 7.01285 3.25375 7.35379 3.22563C7.51261 3.2125 7.67249 3.22239 7.82847 3.255C7.90321 3.27303 7.97687 3.29526 8.0491 3.32156C8.07099 3.32974 8.09344 3.33632 8.11629 3.34125C8.21548 3.36323 8.31902 3.35446 8.41311 3.31612C8.50719 3.27778 8.58737 3.21169 8.64296 3.12665C8.69855 3.0416 8.72691 2.94164 8.72426 2.84008C8.72162 2.73851 8.6881 2.64016 8.62816 2.55813C8.62004 2.54719 8.58691 2.50219 8.53785 2.44156C8.44631 2.32611 8.34601 2.21787 8.23785 2.11781C7.98316 1.88781 7.32316 1.5 6.4566 1.5C5.96069 1.49964 5.46939 1.59514 5.00972 1.78125C3.81066 2.26406 3.02629 2.92438 2.66566 3.27469L2.66285 3.2775C2.42019 3.5171 2.19552 3.77426 1.99066 4.04688C1.91321 4.15609 1.86287 4.28217 1.84379 4.41469C1.83487 4.47107 1.80523 4.52209 1.76066 4.55776C1.71609 4.59342 1.65981 4.61116 1.60285 4.6075H1.56879C1.39843 4.60637 1.23453 4.67264 1.11285 4.79188L0.192537 5.68906L0.182537 5.69906C0.0667707 5.81934 0.00147881 5.97939 8.38544e-05 6.14632C-0.0013111 6.31325 0.0612969 6.47437 0.175037 6.59656C0.180975 6.60281 0.1866 6.60875 0.19285 6.61469L1.67722 8.0625C1.79953 8.18233 1.96382 8.24962 2.13504 8.25C2.3054 8.25114 2.46929 8.18486 2.59097 8.06563L3.5116 7.16594C3.573 7.1059 3.62171 7.03412 3.65483 6.95489C3.68795 6.87565 3.70481 6.79057 3.70441 6.70469Z" fill="#A97DF5"/>
</svg>
