<svg width="32" height="32" viewBox="0 0 32 32" fill="none" xmlns="http://www.w3.org/2000/svg">
<g clip-path="url(#clip0_1_10901)">
<path d="M32 0H0V32H32V0Z" fill="#FFD800"/>
<path d="M3.6466 17.9066C5.70229 20.117 7.65466 22.4896 10.6932 23.2921C12.4168 23.7474 13.2345 23.3406 14.8612 23.1077C16.6017 22.8584 18.3014 22.7703 20.0483 22.6332C22.8814 22.4108 25.1653 21.5504 27.4271 19.8561C27.6418 19.6955 28.1467 19.329 28.3031 19.1562C28.6364 18.7862 28.3031 18.2959 27.8263 18.4453C26.8195 19.2374 25.7747 19.9757 24.6319 20.5629C23.269 21.2627 21.8139 21.6176 20.2818 21.7576C18.3656 21.9327 16.4803 22.0051 14.5706 22.2917C13.5135 22.4505 12.7758 22.7674 11.651 22.6267C8.54184 22.2374 6.31222 19.4568 4.28864 17.3235C4.01373 17.0334 2.96196 15.7027 2.70106 15.6425C2.60008 15.6192 2.47459 15.6128 2.37537 15.6425C2.07653 15.7318 2.07945 16.0832 2.21719 16.3021C2.467 16.6996 3.28414 17.5179 3.6466 17.9072V17.9066Z" fill="black"/>
<path d="M27.0693 8.11674C30.8637 7.63697 31.204 12.7709 27.8689 13.0604C24.3476 13.3663 24.0003 8.50488 27.0693 8.11674Z" fill="black"/>
<path d="M1.92594 10.5039C2.52888 12.8427 5.85171 13.1263 6.82877 10.9125C7.24843 9.9611 7.15913 9.0354 6.42195 8.25503C4.64409 6.3727 1.26056 7.92175 1.92594 10.5039Z" fill="black"/>
<path d="M27.0272 9.42881C28.2897 9.17258 28.651 11.1699 27.2479 11.1699C26.0578 11.1699 26.0181 9.63426 27.0272 9.42881Z" fill="#FBFBFB"/>
<path d="M3.89116 8.22294C5.13145 8.01983 5.348 9.76266 4.27229 9.94535C2.98822 10.1636 2.72031 8.41439 3.89116 8.22294Z" fill="#FBFBFB"/>
</g>
<defs>
<clipPath id="clip0_1_10901">
<rect width="32" height="32" fill="white"/>
</clipPath>
</defs>
</svg>
