<svg width="33" height="33" viewBox="0 0 33 33" fill="none" xmlns="http://www.w3.org/2000/svg">
<g clip-path="url(#clip0_1_10940)">
<path d="M32.3887 0.8125H0.388672V32.8125H32.3887V0.8125Z" fill="#FFD800"/>
<path d="M4.03527 18.7191C6.09095 20.9295 8.04333 23.3021 11.0819 24.1046C12.8055 24.5599 13.6232 24.1531 15.2499 23.9202C16.9904 23.671 18.69 23.5828 20.437 23.4457C23.2701 23.2233 25.554 22.363 27.8157 20.6686C28.0305 20.5081 28.5354 20.1415 28.6918 19.9687C29.0251 19.5987 28.6918 19.1084 28.215 19.2578C27.2081 20.0499 26.1634 20.7882 25.0205 21.3754C23.6577 22.0752 22.2026 22.4301 20.6704 22.5702C18.7542 22.7453 16.869 22.8176 14.9592 23.1042C13.9022 23.263 13.1644 23.5799 12.0397 23.4392C8.93051 23.0499 6.70089 20.2693 4.67731 18.136C4.4024 17.8459 3.35062 16.5152 3.08972 16.455C2.98875 16.4317 2.86326 16.4253 2.76404 16.455C2.4652 16.5443 2.46812 16.8957 2.60586 17.1146C2.85567 17.5121 3.67281 18.3304 4.03527 18.7197V18.7191Z" fill="black"/>
<path d="M27.4579 8.92927C31.2524 8.44949 31.5927 13.5834 28.2576 13.8729C24.7363 14.1788 24.389 9.31741 27.4579 8.92927Z" fill="black"/>
<path d="M2.31464 11.3164C2.91757 13.6552 6.2404 13.9389 7.21746 11.725C7.63712 10.7736 7.54782 9.84792 6.81065 9.06755C5.03279 7.18521 1.64926 8.73427 2.31464 11.3164Z" fill="black"/>
<path d="M27.4159 10.2413C28.6784 9.9851 29.0397 11.9824 27.6365 11.9824C26.4464 11.9824 26.4067 10.4468 27.4159 10.2413Z" fill="#FBFBFB"/>
<path d="M4.27981 9.03542C5.5201 8.8323 5.73665 10.5751 4.66094 10.7578C3.37687 10.9761 3.10896 9.22686 4.27981 9.03542Z" fill="#FBFBFB"/>
</g>
<defs>
<clipPath id="clip0_1_10940">
<rect width="32" height="32" fill="white" transform="translate(0.388672 0.8125)"/>
</clipPath>
</defs>
</svg>
